<svg width="28" height="28" viewBox="0 0 28 28" fill="none" xmlns="http://www.w3.org/2000/svg">
<path fill-rule="evenodd" clip-rule="evenodd" d="M2 0C0.895431 0 0 0.895432 0 2V26C0 27.1046 0.895432 28 2 28H26C27.1046 28 28 27.1046 28 26V2C28 0.895432 27.1046 0 26 0H2ZM10.9964 14C10.9964 12.3474 12.345 10.9987 13.9976 10.9987C15.6502 10.9987 16.9988 12.3474 16.9988 14C16.9988 15.6526 15.6502 17.0013 13.9976 17.0013C12.345 17.0013 10.9964 15.6526 10.9964 14ZM22.9993 13.5454C22.9992 13.6968 22.999 13.8483 22.999 14C22.999 14.1696 22.9992 14.339 22.9995 14.5083C23.0011 15.5792 23.0027 16.6437 22.9405 17.715C22.8707 19.156 22.5442 20.4326 21.4883 21.4886C20.4346 22.5423 19.1557 22.871 17.7148 22.9408C16.6257 23.0021 15.5435 23.0009 14.4546 22.9997C14.3031 22.9995 14.1516 22.9993 13.9998 22.9993C13.8484 22.9993 13.6971 22.9995 13.5459 22.9997C12.4584 23.0009 11.376 23.0021 10.2849 22.9408C8.84394 22.871 7.56736 22.5445 6.51141 21.4886C5.45772 20.4348 5.129 19.156 5.05921 17.715C4.99793 16.6258 4.99913 15.5418 5.00033 14.4538C5.0005 14.3026 5.00067 14.1514 5.00067 14C5.00067 13.8486 5.0005 13.6974 5.00033 13.5462C4.99913 12.4587 4.99793 11.3762 5.05921 10.285C5.129 8.84402 5.45547 7.56741 6.51141 6.51144C7.56511 5.45773 8.84394 5.12901 10.2849 5.05921C11.374 4.99793 12.4562 4.99913 13.5451 5.00034C13.6966 5.0005 13.8481 5.00067 13.9998 5.00067C14.1512 5.00067 14.3025 5.0005 14.4537 5.00034C15.5412 4.99913 16.6236 4.99793 17.7148 5.05921C19.1557 5.12901 20.4323 5.45547 21.4883 6.51144C22.5419 7.56516 22.8707 8.84402 22.9405 10.285C23.0017 11.3742 23.0005 12.4564 22.9993 13.5454ZM9.3798 14C9.3798 16.5555 11.4422 18.6179 13.9976 18.6179C16.553 18.6179 18.6154 16.5555 18.6154 14C18.6154 11.4445 16.553 9.38213 13.9976 9.38213C11.4422 9.38213 9.3798 11.4445 9.3798 14ZM17.726 9.193C17.726 9.78966 18.2078 10.2715 18.8045 10.2715C18.9462 10.2717 19.0865 10.2439 19.2174 10.1898C19.3483 10.1356 19.4673 10.0562 19.5675 9.956C19.6677 9.85582 19.7471 9.73685 19.8012 9.60593C19.8554 9.475 19.8831 9.33468 19.8829 9.193C19.8829 8.59635 19.4011 8.11452 18.8045 8.11452C18.2078 8.11452 17.726 8.59635 17.726 9.193Z" fill="white"/>
</svg>
