<svg width="118" height="32" viewBox="0 0 118 32" fill="none" xmlns="http://www.w3.org/2000/svg">
<path fill-rule="evenodd" clip-rule="evenodd" d="M0.0351562 0.796333C0.0351562 0.104092 0.8577 -0.257243 1.36651 0.211485L22.0885 19.3011C22.4909 19.6718 22.4071 20.3294 21.9246 20.5871L5.57539 29.5931C4.96654 29.9183 4.40397 29.0936 4.92808 28.6442L14.2196 20.6754C14.5943 20.3541 14.5886 19.7721 14.2078 19.4582L6.22646 12.8798C5.70857 12.4529 4.92808 12.8217 4.92808 13.4934L4.92808 19.265C4.92808 19.7039 5.28349 20.0597 5.72191 20.0597H8.59875C9.34142 20.0597 9.67742 20.9896 9.10664 21.4653L1.33688 27.941C0.819759 28.372 0.0351562 28.0038 0.0351562 27.3302V0.796333ZM3.35904 30.4978C3.35904 31.2842 2.72128 31.9218 1.93457 31.9218C1.14785 31.9218 0.510091 31.2842 0.510091 30.4978C0.510091 29.7113 1.14785 29.0737 1.93457 29.0737C2.72128 29.0737 3.35904 29.7113 3.35904 30.4978ZM37.2256 8.11914C38.6831 8.11914 40.0217 8.46866 41.2413 9.1677C42.4758 9.85186 43.45 10.7963 44.1639 12.001C44.8778 13.1909 45.2348 14.5146 45.2348 15.9722C45.2348 17.4297 44.8778 18.7534 44.1639 19.9433C43.45 21.1183 42.4758 22.0478 41.2413 22.732C40.0217 23.4013 38.6831 23.7359 37.2256 23.7359H31.2689V8.11914H37.2256ZM37.2256 21.3934C38.2369 21.3934 39.1665 21.1554 40.0143 20.6795C40.8621 20.2036 41.5313 19.5491 42.0222 18.7163C42.513 17.8834 42.7584 16.9612 42.7584 15.9498C42.7584 14.9385 42.513 14.0163 42.0222 13.1834C41.5313 12.3357 40.8621 11.6738 40.0143 11.1979C39.1665 10.7071 38.2369 10.4617 37.2256 10.4617H33.7453V21.3934H37.2256ZM56.1594 12.5811H58.5019V23.7359H56.1594V22.375C55.6388 22.8956 55.0364 23.3046 54.3523 23.6021C53.683 23.8847 52.984 24.026 52.2552 24.026C51.1397 24.026 50.1581 23.7731 49.3103 23.2674C48.4625 22.7469 47.8007 22.0478 47.3247 21.1703C46.8637 20.2779 46.6331 19.2814 46.6331 18.1808C46.6331 17.0802 46.8637 16.0837 47.3247 15.1913C47.8007 14.2989 48.4625 13.5999 49.3103 13.0942C50.1581 12.5736 51.1397 12.3134 52.2552 12.3134C52.984 12.3134 53.683 12.4621 54.3523 12.7596C55.0364 13.0421 55.6388 13.4437 56.1594 13.9643V12.5811ZM52.5229 21.7727C53.1922 21.7727 53.802 21.6165 54.3523 21.3042C54.9175 20.9918 55.3562 20.5605 55.6686 20.0102C55.9958 19.4599 56.1594 18.8427 56.1594 18.1585C56.1594 17.4743 55.9958 16.8645 55.6686 16.3291C55.3562 15.7788 54.9175 15.3549 54.3523 15.0575C53.802 14.7451 53.1922 14.589 52.5229 14.589C51.8536 14.589 51.2438 14.7451 50.6935 15.0575C50.1581 15.3549 49.7342 15.7788 49.4218 16.3291C49.1244 16.8794 48.9756 17.4967 48.9756 18.1808C48.9756 18.865 49.1244 19.4822 49.4218 20.0325C49.7342 20.5828 50.1581 21.0142 50.6935 21.3265C51.2438 21.6239 51.8536 21.7727 52.5229 21.7727ZM63.3224 23.2451C64.2296 23.7657 65.2112 24.026 66.2672 24.026C67.3232 24.026 68.2974 23.7657 69.1898 23.2451C70.0971 22.7097 70.811 21.9958 71.3315 21.1034C71.8521 20.1961 72.1124 19.2145 72.1124 18.1585C72.1124 17.1025 71.8521 16.1283 71.3315 15.2359C70.811 14.3435 70.0971 13.6371 69.1898 13.1165C68.2974 12.5811 67.3232 12.3134 66.2672 12.3134C65.2112 12.3134 64.2296 12.5811 63.3224 13.1165C62.43 13.6371 61.7235 14.3435 61.2029 15.2359C60.6824 16.1283 60.4221 17.1025 60.4221 18.1585C60.4221 19.2145 60.6824 20.1961 61.2029 21.1034C61.7235 21.9958 62.43 22.7097 63.3224 23.2451ZM68.0297 21.2149C67.4943 21.5273 66.9068 21.6834 66.2672 21.6834C65.6277 21.6834 65.0402 21.5273 64.5048 21.2149C63.9693 20.8877 63.538 20.4564 63.2108 19.921C62.8985 19.3855 62.7423 18.7981 62.7423 18.1585C62.7423 17.519 62.8985 16.9315 63.2108 16.396C63.538 15.8606 63.9693 15.4367 64.5048 15.1244C65.0402 14.8121 65.6277 14.6559 66.2672 14.6559C66.9068 14.6559 67.4943 14.8121 68.0297 15.1244C68.5651 15.4367 68.989 15.8606 69.3014 16.396C69.6137 16.9315 69.7699 17.519 69.7699 18.1585C69.7699 18.7981 69.6137 19.3855 69.3014 19.921C68.989 20.4564 68.5651 20.8877 68.0297 21.2149ZM76.2086 8.11914V21.3934H83.0577V23.7359H73.7323V8.11914H76.2086ZM92.3713 13.0942C91.5236 12.5588 90.5568 12.2911 89.4711 12.2911C88.3407 12.2911 87.3293 12.5513 86.437 13.0719C85.5594 13.5776 84.8678 14.2766 84.3622 15.169C83.8713 16.0614 83.6259 17.0579 83.6259 18.1585C83.6259 19.274 83.8713 20.2779 84.3622 21.1703C84.8678 22.0627 85.5743 22.7617 86.4816 23.2674C87.4037 23.7731 88.4597 24.026 89.6495 24.026C90.7204 24.026 91.6723 23.8177 92.5052 23.4013C93.3381 22.97 94.0074 22.3676 94.5131 21.5942L92.6837 20.5233C92.416 20.9547 91.9995 21.3042 91.4343 21.5719C90.884 21.8396 90.304 21.9735 89.6942 21.9735C88.6977 21.9735 87.8722 21.7058 87.2178 21.1703C86.5782 20.6349 86.1618 19.921 85.9684 19.0286H94.9816C95.0411 18.6419 95.0708 18.3593 95.0708 18.1808C95.0708 17.11 94.8328 16.1283 94.3569 15.2359C93.881 14.3287 93.2191 13.6148 92.3713 13.0942ZM91.7467 15.1021C92.3565 15.6078 92.7209 16.2994 92.8398 17.1769H85.9461C85.961 16.6861 86.1246 16.225 86.437 15.7937C86.7493 15.3475 87.1732 14.998 87.7086 14.7451C88.244 14.4774 88.8315 14.3435 89.4711 14.3435C90.3932 14.3435 91.1517 14.5964 91.7467 15.1021ZM102.375 12.2911C103.03 12.2911 103.691 12.4324 104.361 12.7149C105.045 12.9827 105.632 13.4735 106.123 14.1874C106.614 14.9013 106.859 15.8606 106.859 17.0653V23.7359H104.517V17.0653C104.517 16.1135 104.249 15.4293 103.714 15.0128C103.178 14.5815 102.554 14.3659 101.84 14.3659C101.141 14.3659 100.538 14.6113 100.033 15.1021C99.5269 15.5929 99.2741 16.3886 99.2741 17.4892V23.7359H96.9316V12.5811H99.2741V13.6966C99.6757 13.2801 100.137 12.9455 100.657 12.6926C101.193 12.4249 101.765 12.2911 102.375 12.2911ZM111.719 16.4853C111.347 16.3068 111.161 16.0317 111.161 15.6598C111.161 15.2136 111.339 14.8641 111.696 14.6113C112.053 14.3435 112.537 14.2097 113.146 14.2097C114.306 14.2097 115.095 14.6633 115.511 15.5706L117.43 14.6113C117.028 13.8825 116.448 13.3173 115.69 12.9157C114.946 12.4993 114.098 12.2911 113.146 12.2911C112.343 12.2911 111.614 12.4324 110.96 12.7149C110.306 12.9975 109.785 13.3991 109.398 13.9197C109.012 14.4402 108.818 15.0426 108.818 15.7268C108.818 16.4258 109.012 16.991 109.398 17.4223C109.785 17.8387 110.239 18.1511 110.759 18.3593C111.295 18.5526 112.001 18.7609 112.879 18.984C113.786 19.2071 114.448 19.4227 114.864 19.6309C115.296 19.8243 115.511 20.1366 115.511 20.568C115.511 21.0588 115.273 21.438 114.797 21.7058C114.336 21.9735 113.786 22.1073 113.146 22.1073C112.462 22.1073 111.875 21.9735 111.384 21.7058C110.908 21.4232 110.558 20.9993 110.335 20.4341L108.417 21.438C108.789 22.2561 109.383 22.8956 110.201 23.3567C111.02 23.8029 112.001 24.026 113.146 24.026C113.994 24.026 114.768 23.8921 115.467 23.6244C116.18 23.3418 116.746 22.9402 117.162 22.4197C117.579 21.8842 117.787 21.2596 117.787 20.5456C117.787 19.7574 117.579 19.1327 117.162 18.6716C116.761 18.2106 116.277 17.8759 115.712 17.6677C115.147 17.4446 114.433 17.2364 113.57 17.043C112.722 16.8348 112.105 16.6489 111.719 16.4853Z" fill="white"/>
</svg>
