<svg width="28" height="28" viewBox="0 0 28 28" fill="none" xmlns="http://www.w3.org/2000/svg">
<path fill-rule="evenodd" clip-rule="evenodd" d="M2 0C0.895432 0 0 0.895432 0 2V26C0 27.1046 0.895432 28 2 28H26C27.1046 28 28 27.1046 28 26V2C28 0.895432 27.1046 0 26 0H2ZM21.4733 8.725C22.2592 8.63083 23.0067 8.4225 23.7025 8.11417L23.7008 8.11666C23.1799 8.89574 22.5244 9.57581 21.765 10.125C21.7725 10.2917 21.7767 10.46 21.7767 10.6267C21.7767 15.7567 17.8725 21.6717 10.7308 21.6717C8.62112 21.674 6.5554 21.0685 4.78083 19.9275C5.08839 19.9637 5.39781 19.9818 5.7075 19.9817C7.45573 19.9842 9.15402 19.3987 10.5292 18.3192C9.71909 18.3043 8.93394 18.0365 8.28364 17.5533C7.63332 17.07 7.15041 16.3955 6.9025 15.6242C7.48444 15.7351 8.08398 15.7123 8.65583 15.5575C7.77714 15.3799 6.98694 14.9038 6.41932 14.21C5.85169 13.5161 5.5416 12.6473 5.54166 11.7508V11.7008C6.08073 12.0005 6.68356 12.1671 7.3 12.1867C6.76846 11.8317 6.33277 11.351 6.03156 10.7873C5.73035 10.2235 5.57296 9.59416 5.57333 8.955C5.57333 8.245 5.765 7.57833 6.09833 7.00333C7.0732 8.20263 8.28934 9.18355 9.66785 9.88242C11.0464 10.5813 12.5564 10.9825 14.1 11.06C13.9046 10.2273 13.9896 9.35337 14.3418 8.57392C14.694 7.79446 15.2936 7.15309 16.0477 6.74937C16.8017 6.34566 17.668 6.20219 18.5119 6.34122C19.3559 6.48027 20.1303 6.89405 20.715 7.51833C21.5844 7.34766 22.4182 7.02916 23.18 6.57667C22.8908 7.47622 22.2842 8.23982 21.4733 8.725Z" fill="white"/>
</svg>
