<svg width="28" height="28" viewBox="0 0 28 28" fill="none" xmlns="http://www.w3.org/2000/svg">
<path fill-rule="evenodd" clip-rule="evenodd" d="M2 0C0.895432 0 0 0.895432 0 2V26C0 27.1046 0.895432 28 2 28H26C27.1046 28 28 27.1046 28 26V2C28 0.895432 27.1046 0 26 0H2ZM16.86 6.50166C18.2892 6.74333 19.6558 7.16833 20.9308 7.74333C20.942 7.74776 20.9511 7.75604 20.9567 7.76666C23.2158 11.035 24.3308 14.7233 23.9142 18.9683C23.9132 18.9773 23.9103 18.986 23.9057 18.9937C23.9011 19.0015 23.8949 19.0082 23.8875 19.0133C22.3722 20.1173 20.6811 20.9572 18.8858 21.4975C18.8732 21.5013 18.8597 21.5011 18.8471 21.4969C18.8346 21.4927 18.8237 21.4848 18.8158 21.4742C18.4383 20.9567 18.095 20.4117 17.795 19.8392C17.7921 19.8336 17.7901 19.8277 17.789 19.8216C17.7885 19.819 17.7882 19.8164 17.7881 19.8137C17.7876 19.8048 17.789 19.796 17.7923 19.7877C17.7955 19.7794 17.8005 19.7719 17.8068 19.7657C17.8132 19.7595 17.8208 19.7547 17.8292 19.7517C18.3733 19.55 18.8917 19.3075 19.39 19.0208C19.3946 19.0181 19.3988 19.0148 19.4026 19.011C19.406 19.0075 19.4091 19.0036 19.4116 18.9993C19.417 18.9904 19.42 18.9804 19.4205 18.9701C19.421 18.9598 19.4189 18.9495 19.4145 18.9402C19.4124 18.9359 19.4099 18.9319 19.407 18.9282C19.4036 18.9239 19.3995 18.92 19.395 18.9167C19.2892 18.8392 19.185 18.7583 19.085 18.6767C19.0758 18.6694 19.0648 18.6648 19.0532 18.6635C19.0415 18.6621 19.0297 18.6641 19.0192 18.6692C15.785 20.1392 12.2408 20.1392 8.96834 18.6692C8.95779 18.6644 8.94613 18.6627 8.93466 18.6641C8.92318 18.6656 8.91234 18.6702 8.90334 18.6775C8.80334 18.7583 8.69834 18.8392 8.59334 18.9167C8.58508 18.9229 8.5785 18.9311 8.57418 18.9405C8.56987 18.9499 8.56796 18.9602 8.56861 18.9705C8.56927 18.9809 8.57249 18.9909 8.57797 18.9996C8.58345 19.0084 8.59102 19.0157 8.6 19.0208C9.10007 19.3051 9.62167 19.5498 10.16 19.7525C10.195 19.7658 10.2117 19.8058 10.1942 19.8392C9.90084 20.4125 9.5575 20.9583 9.1725 21.475C9.16437 21.4852 9.15334 21.4928 9.14085 21.4966C9.12836 21.5005 9.115 21.5005 9.1025 21.4967C7.31028 20.9548 5.622 20.1153 4.10834 19.0133C4.10468 19.0105 4.10132 19.0074 4.09833 19.0039C4.09544 19.0006 4.09289 18.9969 4.09071 18.9931C4.08627 18.9852 4.08347 18.9765 4.0825 18.9675C3.73334 15.2958 4.44417 11.5775 7.0375 7.765C7.04389 7.75495 7.0532 7.7471 7.06417 7.7425C8.34 7.16666 9.70667 6.74167 11.135 6.5C11.1479 6.49796 11.1611 6.49989 11.1729 6.50555C11.1846 6.51121 11.1944 6.52032 11.2008 6.53166C11.3911 6.86352 11.5628 7.20572 11.715 7.55666C13.2308 7.33019 14.7718 7.33019 16.2875 7.55666C16.4242 7.24 16.6192 6.83916 16.7942 6.53166C16.8007 6.52045 16.8105 6.51154 16.8223 6.50617C16.8341 6.50079 16.8473 6.49922 16.86 6.50166ZM8.88584 14.7483C8.88584 15.8408 9.69834 16.7317 10.6833 16.7317C11.6842 16.7317 12.4808 15.8417 12.4808 14.7483C12.4967 13.6625 11.6917 12.765 10.6833 12.765C9.6825 12.765 8.88584 13.655 8.88584 14.7483ZM15.5317 14.7483C15.5317 15.8408 16.3433 16.7317 17.3292 16.7317C18.3383 16.7317 19.1267 15.8417 19.1267 14.7483C19.1425 13.6625 18.3375 12.765 17.3292 12.765C16.3275 12.765 15.5317 13.655 15.5317 14.7483Z" fill="white"/>
</svg>
