<svg width="40" height="40" viewBox="0 0 40 40" fill="none" xmlns="http://www.w3.org/2000/svg">
<circle cx="20" cy="20" r="20" fill="url(#paint0_linear_109_8)"/>
<path fill-rule="evenodd" clip-rule="evenodd" d="M13.0186 7.22427C13.0186 6.66224 13.6864 6.36887 14.0995 6.74943L30.9236 22.2482C31.2504 22.5492 31.1824 23.0831 30.7906 23.2924L17.5167 30.6043C17.0224 30.8684 16.5656 30.1987 16.9912 29.8339L24.5349 23.364C24.8391 23.1032 24.8345 22.6307 24.5253 22.3758L18.0453 17.0348C17.6248 16.6882 16.9912 16.9877 16.9912 17.533L16.9912 22.2189C16.9912 22.5753 17.2797 22.8642 17.6357 22.8642H19.9714C20.5743 22.8642 20.8471 23.6191 20.3837 24.0054L14.0755 29.263C13.6556 29.6129 13.0186 29.314 13.0186 28.767L13.0186 7.22427Z" fill="white"/>
<path d="M15.6199 31.3388C15.6199 31.9774 15.1238 32.495 14.5119 32.495C13.9 32.495 13.4039 31.9774 13.4039 31.3388C13.4039 30.7003 13.9 30.1827 14.5119 30.1827C15.1238 30.1827 15.6199 30.7003 15.6199 31.3388Z" fill="white"/>
<defs>
<linearGradient id="paint0_linear_109_8" x1="0.677966" y1="25.8228" x2="40.0007" y2="25.8001" gradientUnits="userSpaceOnUse">
<stop stop-color="#E75983"/>
<stop offset="1" stop-color="#5356F5"/>
</linearGradient>
</defs>
</svg>
