<svg width="28" height="28" viewBox="0 0 28 28" fill="none" xmlns="http://www.w3.org/2000/svg">
<path fill-rule="evenodd" clip-rule="evenodd" d="M2 0C0.895432 0 0 0.895432 0 2V26C0 27.1046 0.895432 28 2 28H26C27.1046 28 28 27.1046 28 26V2C28 0.895432 27.1046 0 26 0H2ZM5.28195 5.28194C4.99471 5.56919 4.83333 5.95877 4.83333 6.365V21.6342C4.83323 21.8354 4.87276 22.0346 4.94969 22.2206C5.02661 22.4065 5.13942 22.5754 5.28165 22.7178C5.42389 22.8601 5.59278 22.973 5.77867 23.05C5.96455 23.127 6.16379 23.1667 6.365 23.1667H21.6342C21.8355 23.1668 22.0349 23.1272 22.221 23.0502C22.407 22.9731 22.576 22.8602 22.7183 22.7178C22.8607 22.5753 22.9735 22.4062 23.0505 22.2202C23.1274 22.0341 23.1669 21.8347 23.1667 21.6333V6.365C23.1668 6.16368 23.1272 5.96432 23.0501 5.77834C22.9731 5.59235 22.8601 5.42339 22.7177 5.28111C22.5753 5.13884 22.4062 5.02605 22.2201 4.94922C22.034 4.87238 21.8346 4.833 21.6333 4.83333H6.365C5.95878 4.83333 5.56919 4.99471 5.28195 5.28194ZM14.5725 11.8233H12.09V20.6067H14.7633V16.3517C14.7633 14.9258 15.2883 14.0183 16.5508 14.0183C17.4608 14.0183 17.8192 14.86 17.8192 16.3517V20.6067H20.4917V15.755C20.4917 13.1358 19.8658 11.7083 17.225 11.7083C15.8475 11.7083 14.9308 12.3533 14.5725 13.07V11.8233ZM10.18 20.4925H7.50667V20.4917V11.7083H10.18V20.4925ZM10.4427 9.51276C10.5268 9.29982 10.5675 9.07223 10.5625 8.84333C10.5526 8.39404 10.3672 7.96649 10.0459 7.65224C9.72468 7.33798 9.29315 7.16201 8.84375 7.16201C8.39435 7.16201 7.96282 7.33798 7.64157 7.65224C7.32032 7.96649 7.1349 8.39404 7.125 8.84333C7.11996 9.07223 7.16069 9.29982 7.2448 9.51276C7.32891 9.7257 7.45471 9.91969 7.61481 10.0834C7.77491 10.247 7.96609 10.3771 8.17712 10.4658C8.38816 10.5546 8.6148 10.6003 8.84375 10.6003C9.0727 10.6003 9.29935 10.5546 9.51038 10.4658C9.72142 10.3771 9.91259 10.247 10.0727 10.0834C10.2328 9.91969 10.3586 9.7257 10.4427 9.51276Z" fill="white"/>
</svg>
