<svg width="28" height="28" viewBox="0 0 28 28" fill="none" xmlns="http://www.w3.org/2000/svg">
<path fill-rule="evenodd" clip-rule="evenodd" d="M2 0C0.895431 0 0 0.895431 0 2V26C0 27.1046 0.895431 28 2 28H26C27.1046 28 28 27.1046 28 26V2C28 0.895431 27.1046 0 26 0H2ZM11.49 21.0675L11.4911 21.0679C11.5526 21.0895 11.7245 21.1246 12.0811 20.9656C12.4496 20.8013 12.9205 20.4661 13.4477 19.9108C13.7589 19.583 14.0725 19.1967 14.3799 18.7586C14.5641 18.496 14.4392 18.1354 14.1369 18.0281L11.3531 17.0394C11.0508 16.9321 10.7265 17.1331 10.7038 17.453C10.666 17.9869 10.6657 18.4844 10.7004 18.9351C10.7593 19.6986 10.9132 20.2556 11.0956 20.6156C11.2731 20.9661 11.4295 21.046 11.49 21.0675ZM15.058 16.7634C15.2957 16.8478 15.5597 16.7424 15.667 16.5141C15.9142 15.9885 16.1459 15.4278 16.3558 14.8367C16.5043 14.4185 16.6348 14.0053 16.7479 13.5997C16.8171 13.3514 16.6789 13.0943 16.436 13.008L12.7354 11.6938C12.4924 11.6075 12.223 11.7198 12.1201 11.9562C11.9521 12.3422 11.7927 12.7452 11.6442 13.1633C11.4342 13.7544 11.2604 14.3358 11.1206 14.8995C11.06 15.1443 11.1983 15.3927 11.436 15.4771L15.058 16.7634ZM15.9572 19.098C16.0852 18.8978 16.3334 18.8082 16.5573 18.8877L18.0501 19.4179C18.413 19.5467 18.4959 20.0163 18.1759 20.2305C17.3037 20.8141 16.3146 21.2119 15.2752 21.3921C14.8207 21.471 14.5841 20.9069 14.8842 20.5565C15.2519 20.127 15.6122 19.638 15.9572 19.098ZM19.6451 18.3925C19.8509 18.4656 20.0818 18.3976 20.2045 18.2169C20.5561 17.6987 20.8482 17.1277 21.0675 16.51C21.2234 16.0711 21.336 15.6273 21.4074 15.1833C21.4442 14.9548 21.306 14.7376 21.0879 14.6602L18.798 13.8469C18.5216 13.7487 18.2209 13.9087 18.1393 14.1905C18.0295 14.57 17.9062 14.9534 17.7693 15.3387C17.5757 15.8838 17.3636 16.4088 17.1364 16.9098C17.0131 17.1818 17.1443 17.5044 17.4257 17.6043L19.6451 18.3925ZM9.73082 14.2797C9.65494 14.5686 9.3497 14.7361 9.06826 14.6362L6.8489 13.848C6.64307 13.7749 6.5068 13.5765 6.52561 13.3589C6.57956 12.735 6.71311 12.1077 6.93247 11.49C7.08836 11.0511 7.28094 10.6357 7.50555 10.2461C7.62111 10.0456 7.86536 9.96422 8.08338 10.0417L10.3733 10.8549C10.6497 10.9531 10.7822 11.2669 10.6677 11.537C10.5136 11.9008 10.3675 12.276 10.2307 12.6613C10.0371 13.2065 9.87058 13.7477 9.73082 14.2797ZM6.82972 16.2009C6.71643 15.8329 7.07698 15.5208 7.43986 15.6497L8.93267 16.1798C9.15659 16.2594 9.29268 16.4855 9.26567 16.7216C9.19281 17.3581 9.16405 17.9649 9.17848 18.5301C9.19026 18.9913 8.65094 19.2798 8.34796 18.932C7.65511 18.1365 7.13845 17.2039 6.82972 16.2009ZM16.5984 11.4739C16.8938 11.5789 17.2125 11.3891 17.2475 11.0776C17.3302 10.3407 17.3456 9.66176 17.2996 9.06493C17.2407 8.30143 17.0868 7.74436 16.9044 7.38439C16.7269 7.03394 16.5705 6.95397 16.51 6.93247C16.4495 6.91099 16.2777 6.87442 15.9189 7.03439C15.5504 7.19871 15.0795 7.5339 14.5523 8.08924C14.1401 8.52334 13.7239 9.05992 13.3233 9.68389C13.1539 9.94769 13.2815 10.2959 13.5769 10.4009L16.5984 11.4739ZM19.0007 12.3271C18.7714 12.2457 18.6348 12.0109 18.6701 11.7701C18.7898 10.9534 18.8396 10.1789 18.8215 9.46975C18.8097 9.00859 19.3491 8.72017 19.652 9.06803C20.4849 10.0242 21.0631 11.1785 21.3317 12.415C21.4099 12.7751 21.0563 13.0572 20.7091 12.9338L19.0007 12.3271ZM10.988 22.481L10.9912 22.4821C15.6743 24.1434 20.8179 21.6949 22.481 17.012C24.1445 12.3281 21.6959 7.18245 17.012 5.51897C12.3281 3.85548 7.18245 6.30405 5.51897 10.988C3.85548 15.6719 6.30405 20.8175 10.988 22.481ZM12.7248 6.60785C13.1793 6.52901 13.4159 7.093 13.1159 7.44343C12.6546 7.98228 12.2048 8.61473 11.7825 9.32399C11.658 9.53312 11.404 9.62916 11.1746 9.5477L9.46622 8.94097C9.11901 8.81766 9.02259 8.37577 9.31038 8.14569C10.2987 7.35555 11.4755 6.82455 12.7248 6.60785Z" fill="white"/>
</svg>

